<?xml version="1.0" standalone="no"?>
<!DOCTYPE svg PUBLIC "-//W3C//DTD SVG 20010904//EN"
 "http://www.w3.org/TR/2001/REC-SVG-20010904/DTD/svg10.dtd">
<svg version="1.0" xmlns="http://www.w3.org/2000/svg"
 width="410.000000pt" height="410.000000pt" viewBox="0 0 410.000000 410.000000"
 preserveAspectRatio="xMidYMid meet">
<metadata>
Created by potrace 1.11, written by Peter Selinger 2001-2013
</metadata>
<g transform="translate(0.000000,410.000000) scale(0.100000,-0.100000)"
fill="#000000" stroke="none">
<path d="M1237 4024 c-1 -1 -23 -5 -49 -8 -178 -24 -319 -152 -374 -341 -16
-56 -17 -172 -18 -1640 l-1 -1580 -24 -48 c-30 -61 -81 -96 -156 -106 -140
-19 -238 27 -287 135 -20 45 -23 66 -24 242 -1 107 -5 196 -7 199 -3 3 -54 5
-114 6 l-108 1 -3 -193 c-2 -170 0 -202 19 -271 58 -215 220 -337 459 -344
235 -7 408 115 464 330 14 52 16 238 16 1621 0 1760 -6 1628 76 1710 47 47 93
63 181 64 122 2 200 -44 243 -144 20 -44 23 -71 24 -172 l2 -120 116 -3 117
-3 -4 138 c-2 91 -9 157 -20 193 -49 161 -167 275 -324 315 -52 14 -195 27
-204 19z"/>
<path d="M2640 3368 c-91 -22 -168 -67 -226 -132 -44 -48 -107 -163 -121 -221
-4 -16 -9 -288 -10 -603 l-3 -573 -140 2 c-204 2 -267 20 -312 90 -15 23 -30
60 -33 83 -3 22 -6 178 -8 346 l-2 305 -115 0 -115 0 1 -1100 c0 -1100 0
-1100 22 -1171 60 -197 205 -305 425 -318 258 -15 456 137 501 384 2 14 5 280
5 593 l1 567 263 0 264 0 0 -734 c1 -404 3 -738 6 -743 3 -4 54 -8 114 -8
l108 0 3 744 2 743 103 -4 c118 -5 182 -28 228 -80 36 -42 48 -103 48 -243 0
-60 0 -147 0 -192 l1 -83 116 0 115 0 -2 221 c-2 249 -10 300 -65 390 -84 140
-248 213 -471 211 l-73 -1 -2 252 -3 251 -112 1 -113 1 -1 -26 c0 -14 -1 -127
-1 -252 l0 -226 -264 0 -265 1 3 561 3 561 28 57 c48 97 117 140 227 141 127
2 201 -39 243 -133 18 -41 26 -104 27 -220 l0 -36 115 1 115 0 0 97 c0 102
-13 182 -36 226 -8 15 -14 31 -14 35 0 15 -60 96 -98 131 -44 42 -130 90 -192
106 -75 20 -206 19 -290 -2z m-785 -1720 c73 -23 114 -27 292 -27 l133 -1 -3
-572 -2 -573 -28 -58 c-43 -86 -106 -120 -219 -120 -120 1 -190 47 -224 146
-14 43 -16 113 -16 585 0 710 -2 646 20 637 9 -4 31 -11 47 -17z"/>
<path d="M1610 3200 c-222 -75 -170 -390 65 -390 188 0 281 214 150 345 -55
54 -137 71 -215 45z"/>
<path d="M3718 533 c-86 -25 -151 -113 -147 -197 6 -120 111 -206 236 -193
138 14 225 161 167 283 -24 50 -88 101 -137 109 -23 4 -49 9 -57 10 -8 1 -36
-4 -62 -12z"/>
</g>
</svg>
